Input #0, mov,mp4,m4a,3gp,3g2,mj2, from '/var/www/html/project/media/video/original/1000152528.mp4':
  Metadata:
    major_brand     : mp42
    minor_version   : 0
    compatible_brands: isommp42
    creation_time   : 2025-01-23T19:18:08.000000Z
    com.android.version: 14
  Duration: 00:00:30.64, start: 0.000000, bitrate: 7948 kb/s
    Stream #0:0(eng): Video: hevc (Main), 1 reference frame (hvc1 / 0x31637668), yuv420p(tv, bt709), 1920x1080 (1920x1088), 7816 kb/s, 30 fps, 30 tbr, 90k tbn, 90k tbc (default)
    Metadata:
      creation_time   : 2025-01-23T19:18:08.000000Z
      handler_name    : VideoHandle
    Stream #0:1(eng): Audio: aac (LC) (mp4a / 0x6134706D), 48000 Hz, stereo, fltp, 128 kb/s (default)
    Metadata:
      creation_time   : 2025-01-23T19:18:08.000000Z
      handler_name    : SoundHandle
Input #1, png_pipe, from '/var/www/html/project/static/images/templates/logo.png':
  Duration: N/A, bitrate: N/A
    Stream #1:0: Video: png, 1 reference frame, rgba(pc), 1920x1080 [SAR 2835:2835 DAR 16:9], 25 tbr, 25 tbn, 25 tbc
[h264 @ 0x55e9217ce940] Reinit context to 1280x720, pix_fmt: yuv420p
Input #2, mov,mp4,m4a,3gp,3g2,mj2, from '/var/www/html/project/static/images/templates/Codino.mp4':
  Metadata:
    major_brand     : mp42
    minor_version   : 1
    compatible_brands: isommp41mp42
    creation_time   : 2021-07-11T07:02:58.000000Z
  Duration: 00:00:02.00, start: 0.000000, bitrate: 1007 kb/s
    Stream #2:0(ita): Audio: aac (LC) (mp4a / 0x6134706D), 44100 Hz, stereo, fltp, 102 kb/s (default)
    Metadata:
      creation_time   : 2021-07-11T07:02:58.000000Z
      handler_name    : Core Media Audio
    Stream #2:1(und): Video: h264 (High), 1 reference frame (avc1 / 0x31637661), yuv420p(tv, bt709, progressive, left), 1280x720 [SAR 1:1 DAR 16:9], 813 kb/s, 25 fps, 25 tbr, 25k tbn, 50k tbc (default)
    Metadata:
      creation_time   : 2021-07-11T07:02:58.000000Z
      handler_name    : Core Media Video
[Parsed_scale_0 @ 0x55e9217c0b00] w:1280 h:720 flags:'bilinear' interl:0
[Parsed_scale_2 @ 0x55e9217ea080] w:1280 h:720 flags:'bilinear' interl:0
[Parsed_scale_4 @ 0x55e9218a6380] w:1280 h:720 flags:'bilinear' interl:0
Stream mapping:
  Stream #0:0 (hevc) -> scale
  Stream #0:1 (aac) -> concat:in0:a0
  Stream #1:0 (png) -> scale
  Stream #2:0 (aac) -> concat:in1:a0
  Stream #2:1 (h264) -> scale
  concat:out:v0 -> Stream #0:0 (libx264)
  concat:out:a0 -> Stream #0:1 (aac)
Press [q] to stop, [?] for help
[h264 @ 0x55e921a97900] Reinit context to 1280x720, pix_fmt: yuv420p
[Parsed_scale_0 @ 0x55e923d40fc0] w:1280 h:720 flags:'bilinear' interl:0
[Parsed_scale_2 @ 0x55e923d41140] w:1280 h:720 flags:'bilinear' interl:0
[Parsed_scale_4 @ 0x55e923d4a900] w:1280 h:720 flags:'bilinear' interl:0
[graph 0 input from stream 0:0 @ 0x55e923d4f100] w:1920 h:1080 pixfmt:yuv420p tb:1/90000 fr:30/1 sar:0/1 sws_param:flags=2
[graph 0 input from stream 1:0 @ 0x55e923d50180] w:1920 h:1080 pixfmt:rgba tb:1/25 fr:25/1 sar:2835/2835 sws_param:flags=2
[graph 0 input from stream 2:1 @ 0x55e923d51200] w:1280 h:720 pixfmt:yuv420p tb:1/25000 fr:25/1 sar:1/1 sws_param:flags=2
[graph_0_in_0_1 @ 0x55e923d521c0] tb:1/48000 samplefmt:fltp samplerate:48000 chlayout:0x3
[graph_0_in_2_0 @ 0x55e923d53300] tb:1/44100 samplefmt:fltp samplerate:44100 chlayout:0x3
[Parsed_concat_7 @ 0x55e923d4d140] auto-inserting filter 'auto_resampler_0' between the filter 'graph_0_in_2_0' and the filter 'Parsed_concat_7'
[Parsed_scale_0 @ 0x55e923d40fc0] w:1920 h:1080 fmt:yuv420p sar:0/1 -> w:1280 h:720 fmt:yuv420p sar:0/1 flags:0x2
[Parsed_setsar_1 @ 0x55e923d48f80] w:1280 h:720 sar:0/1 dar:16/9 -> sar:1/1 dar:16/9
[Parsed_scale_2 @ 0x55e923d41140] w:1920 h:1080 fmt:rgba sar:2835/2835 -> w:1280 h:720 fmt:yuva420p sar:1/1 flags:0x2
[Parsed_setsar_3 @ 0x55e923d49cc0] w:1280 h:720 sar:1/1 dar:16/9 -> sar:1/1 dar:16/9
[Parsed_overlay_6 @ 0x55e923d4c040] main w:1280 h:720 fmt:yuv420p overlay w:1280 h:720 fmt:yuva420p
[Parsed_overlay_6 @ 0x55e923d4c040] [framesync @ 0x55e923d4c1a8] Selected 1/90000 time base
[Parsed_overlay_6 @ 0x55e923d4c040] [framesync @ 0x55e923d4c1a8] Sync level 2
[Parsed_scale_4 @ 0x55e923d4a900] w:1280 h:720 fmt:yuv420p sar:1/1 -> w:1280 h:720 fmt:yuv420p sar:1/1 flags:0x2
[Parsed_setsar_5 @ 0x55e923d4b3c0] w:1280 h:720 sar:1/1 dar:16/9 -> sar:1/1 dar:16/9
[auto_resampler_0 @ 0x55e923d59bc0] ch:2 chl:stereo fmt:fltp r:44100Hz -> ch:2 chl:stereo fmt:fltp r:48000Hz
[libx264 @ 0x55e92177f180] using SAR=1/1
[libx264 @ 0x55e92177f180] using cpu capabilities: MMX2 SSE2Fast SSSE3 SSE4.2 AVX FMA3 BMI2 AVX2
[libx264 @ 0x55e92177f180] profile High, level 3.1
[libx264 @ 0x55e92177f180] 264 - core 155 r2917 0a84d98 - H.264/MPEG-4 AVC codec - Copyleft 2003-2018 - http://www.videolan.org/x264.html - options: cabac=1 ref=1 deblock=1:0:0 analyse=0x3:0x113 me=hex subme=2 psy=1 psy_rd=1.00:0.00 mixed_ref=0 me_range=16 chroma_me=1 trellis=0 8x8dct=1 cqm=0 deadzone=21,11 fast_pskip=1 chroma_qp_offset=0 threads=22 lookahead_threads=5 sliced_threads=0 nr=0 decimate=1 interlaced=0 bluray_compat=0 constrained_intra=0 bframes=3 b_pyramid=2 b_adapt=1 b_bias=0 direct=1 weightb=1 open_gop=0 weightp=1 keyint=250 keyint_min=25 scenecut=40 intra_refresh=0 rc_lookahead=10 rc=crf mbtree=1 crf=18.0 qcomp=0.60 qpmin=0 qpmax=69 qpstep=4 ip_ratio=1.40 aq=1:1.00
Output #0, mp4, to '/var/www/html/project/media/video/watermarks/1000152528.mp4':
  Metadata:
    major_brand     : mp42
    minor_version   : 0
    compatible_brands: isommp42
    com.android.version: 14
    encoder         : Lavf58.29.100
    Stream #0:0: Video: h264 (libx264), 1 reference frame (avc1 / 0x31637661), yuv420p, 1280x720 [SAR 1:1 DAR 16:9], q=-1--1, 30 fps, 15360 tbn, 30 tbc (default)
    Metadata:
      encoder         : Lavc58.54.100 libx264
    Side data:
      cpb: bitrate max/min/avg: 0/0/0 buffer size: 0 vbv_delay: -1
    Stream #0:1: Audio: aac (LC) (mp4a / 0x6134706D), 48000 Hz, stereo, fltp, delay 1024, 128 kb/s (default)
    Metadata:
      encoder         : Lavc58.54.100 aac
[Parsed_overlay_6 @ 0x55e923d4c040] [framesync @ 0x55e923d4c1a8] Sync level 0
[Parsed_concat_7 @ 0x55e923d4d140] EOF on in0:v0, 1 streams left in segment.
[Parsed_concat_7 @ 0x55e923d4d140] EOF on in0:a0, 0 streams left in segment.
[Parsed_concat_7 @ 0x55e923d4d140] Segment finished at pts=30635336
[Parsed_concat_7 @ 0x55e923d4d140] EOF on in1:v0, 1 streams left in segment.
[Parsed_concat_7 @ 0x55e923d4d140] EOF on in1:a0, 0 streams left in segment.
[Parsed_concat_7 @ 0x55e923d4d140] Segment finished at pts=32654023
No more output streams to write to, finishing.
frame=  969 fps= 53 q=-1.0 Lsize=   16631kB time=00:00:32.66 bitrate=4171.5kbits/s speed=1.78x    
[AVIOContext @ 0x55e921778440] Statistics: 0 seeks, 36 writeouts
video:16089kB audio:506kB subtitle:0kB other streams:0kB global headers:0kB muxing overhead: 0.219224%
Input file #0 (/var/www/html/project/media/video/original/1000152528.mp4):
  Input stream #0:0 (video): 919 packets read (29931725 bytes); 919 frames decoded; 
  Input stream #0:1 (audio): 1434 packets read (489712 bytes); 1434 frames decoded (1468416 samples); 
  Total: 2353 packets (30421437 bytes) demuxed
Input file #1 (/var/www/html/project/static/images/templates/logo.png):
  Input stream #1:0 (video): 1 packets read (111578 bytes); 1 frames decoded; 
  Total: 1 packets (111578 bytes) demuxed
Input file #2 (/var/www/html/project/static/images/templates/Codino.mp4):
  Input stream #2:0 (audio): 89 packets read (26579 bytes); 87 frames decoded (89024 samples); 
  Input stream #2:1 (video): 50 packets read (203365 bytes); 50 frames decoded; 
  Total: 139 packets (229944 bytes) demuxed
Output file #0 (/var/www/html/project/media/video/watermarks/1000152528.mp4):
  Output stream #0:0 (video): 969 frames encoded; 969 packets muxed (16474854 bytes); 
  Output stream #0:1 (audio): 1531 frames encoded (1567416 samples); 1532 packets muxed (518284 bytes); 
  Total: 2501 packets (16993138 bytes) muxed
[AVIOContext @ 0x55e9217ea200] Statistics: 2 seeks, 68 writeouts
[libx264 @ 0x55e92177f180] frame I:6     Avg QP:13.71  size: 36330
[libx264 @ 0x55e92177f180] frame P:327   Avg QP:17.52  size: 23066
[libx264 @ 0x55e92177f180] frame B:636   Avg QP:18.86  size: 13701
[libx264 @ 0x55e92177f180] consecutive B-frames:  7.6% 12.2%  7.1% 73.1%
[libx264 @ 0x55e92177f180] mb I  I16..4: 41.1% 37.2% 21.7%
[libx264 @ 0x55e92177f180] mb P  I16..4: 25.8% 35.0%  5.1%  P16..4: 14.2%  6.7%  3.5%  0.0%  0.0%    skip: 9.7%
[libx264 @ 0x55e92177f180] mb B  I16..4:  9.0% 12.9%  0.8%  B16..8: 27.1% 10.9%  1.1%  direct:22.8%  skip:15.3%  L0:46.1% L1:45.1% BI: 8.8%
[libx264 @ 0x55e92177f180] 8x8 transform intra:54.3% inter:33.3%
[libx264 @ 0x55e92177f180] coded y,uvDC,uvAC intra: 38.1% 66.9% 21.0% inter: 10.9% 67.3% 1.9%
[libx264 @ 0x55e92177f180] i16 v,h,dc,p: 48% 33%  9% 11%
[libx264 @ 0x55e92177f180] i8 v,h,dc,ddl,ddr,vr,hd,vl,hu: 27% 30% 16%  3%  6%  5%  6%  3%  4%
[libx264 @ 0x55e92177f180] i4 v,h,dc,ddl,ddr,vr,hd,vl,hu: 26% 27% 12%  4%  8%  7%  8%  4%  4%
[libx264 @ 0x55e92177f180] i8c dc,h,v,p: 40% 24% 23% 13%
[libx264 @ 0x55e92177f180] Weighted P-Frames: Y:7.6% UV:4.9%
[libx264 @ 0x55e92177f180] kb/s:4038.61
[aac @ 0x55e92192af40] Qavg: 1698.517
[AVIOContext @ 0x55e9217813c0] Statistics: 60208184 bytes read, 1728 seeks
[AVIOContext @ 0x55e92177eb40] Statistics: 111578 bytes read, 0 seeks
[AVIOContext @ 0x55e9217c62c0] Statistics: 1530915 bytes read, 42 seeks
